<svg width="461" height="584" viewBox="0 0 461 584" fill="none" xmlns="http://www.w3.org/2000/svg">
<path d="M40 42C40 40.8954 40.8954 40 42 40H418.197C419.302 40 420.197 40.8954 420.197 42V541.064C420.197 542.169 419.302 543.064 418.197 543.064H42C40.8954 543.064 40 542.169 40 541.064V42Z" fill="#EFD5C9"/>
<path d="M162.644 455.008L111.927 453.405C104.893 453.183 96.9828 453.194 91.9656 456.829C86.2713 460.955 87.1335 468.265 91.8613 473.006C96.5891 477.747 104.138 480.455 111.548 482.658C150.912 494.358 194.476 496.733 236.777 494.086C279.077 491.438 320.507 483.954 361.732 476.495C365.642 475.788 370.074 474.77 371.668 472.049C373.21 469.417 371.192 466.242 368.057 464.541C364.922 462.84 360.948 462.267 357.114 461.76C287.667 452.634 217.468 450.632 147.613 455.784" fill="#FF63A7"/>
<path d="M221.222 467.392L211.321 467.391L206.611 429.201L221.224 429.202L221.222 467.392Z" fill="#FFB6B6"/>
<path d="M221.571 477.721L191.124 477.72V477.335C191.124 474.192 192.372 471.178 194.595 468.955C196.817 466.733 199.831 465.484 202.974 465.484L208.537 461.265L218.913 465.485L221.571 465.485L221.571 477.721Z" fill="#2F2E41"/>
<path d="M256.222 467.392L246.321 467.391L241.611 429.201L256.224 429.202L256.222 467.392Z" fill="#FFB6B6"/>
<path d="M256.571 477.721L226.124 477.72V477.335C226.124 474.192 227.372 471.178 229.595 468.955C231.817 466.733 234.831 465.484 237.974 465.484L243.537 461.265L253.913 465.485L256.571 465.485L256.571 477.721Z" fill="#2F2E41"/>
<path d="M196.57 259.304C196.57 259.304 187.044 288.562 188.802 292.413C190.56 296.264 193.56 293.264 190.56 296.264C187.56 299.264 184.941 296.075 187.751 301.17C190.56 306.264 194.816 348.204 196.688 350.234C198.56 352.264 201.134 352.319 198.847 354.291C196.56 356.264 193.56 352.264 196.56 356.264C199.56 360.264 207.521 452.54 207.521 452.54H223.072C223.072 452.54 226.945 448.075 224.753 445.17C222.56 442.264 224.945 441.144 224.753 439.204C224.56 437.264 225.29 433.081 225.425 431.173C225.56 429.264 228.188 383.795 221.874 357.53L233.388 307.517L239.145 367.964C239.145 367.964 232.729 418.666 239.145 434.965C239.145 434.965 233.972 439.272 236.266 441.768C238.56 444.264 240.56 442.264 238.56 444.264C236.56 446.264 241.56 453.264 241.56 453.264L258.56 452.264L268.182 357.53C268.182 357.53 269.804 347.65 268.182 345.957C266.56 344.264 266.56 350.264 266.56 344.264V336.264C266.56 336.264 273.811 287.059 273.686 284.162C273.56 281.264 261.56 260.264 261.56 260.264L196.57 259.304Z" fill="#2F2E41"/>
<path d="M246.849 140.971L222.026 139.264L214.599 150.976L196.71 158.249V215.944C198.571 221.53 199.533 227.376 199.56 233.264C199.492 244.759 196.538 258.299 197.56 261.264C207.56 290.264 262.56 261.264 262.56 261.264L261.56 230.264L262.917 160.205L251.679 151.241L246.849 140.971Z" fill="white"/>
<path d="M195.562 271.829L193.851 253.587L183.294 253.111L185.79 272.333C185.149 273.277 184.785 274.381 184.738 275.521C184.691 276.661 184.963 277.792 185.524 278.786C186.084 279.78 186.91 280.598 187.91 281.148C188.91 281.698 190.043 281.958 191.182 281.899C192.322 281.84 193.422 281.465 194.36 280.815C195.298 280.165 196.036 279.267 196.491 278.22C196.946 277.174 197.1 276.021 196.936 274.892C196.772 273.763 196.296 272.702 195.562 271.829Z" fill="#FFB6B6"/>
<path d="M200.758 156.711L200.465 156.76C197.743 157.222 195.175 158.339 192.982 160.017C190.789 161.695 189.038 163.882 187.881 166.388C184.858 172.926 175.041 215.905 179.344 222.387C182.682 227.413 181.871 226.433 180.302 230.225C178.733 234.016 176.206 229.97 178.277 235.988C180.348 242.006 182.624 241.148 180.702 243.473C178.779 245.798 176.807 245.342 178.677 249.236C180.546 253.131 180.242 254.445 180.596 255.912C180.949 257.378 180.642 267.693 180.642 267.693C180.642 267.693 191.918 266.838 197.53 269.52C197.53 269.52 194.399 259.103 196.169 257.435C197.94 255.767 200.064 255.565 198.547 253.137C197.031 250.71 193.593 250.607 197.335 249.395C201.078 248.183 199.872 226.44 199.872 226.44C206.036 210.299 203.6 183.751 200.758 156.711Z" fill="white"/>
<path d="M268.752 273.131L269.541 254.826L280.061 253.818L278.538 273.141C279.225 274.052 279.644 275.136 279.749 276.272C279.853 277.409 279.638 278.551 279.129 279.572C278.62 280.593 277.835 281.452 276.865 282.052C275.894 282.651 274.776 282.968 273.635 282.967C272.494 282.966 271.376 282.647 270.406 282.045C269.437 281.443 268.655 280.583 268.147 279.561C267.64 278.539 267.428 277.396 267.535 276.26C267.642 275.124 268.063 274.04 268.752 273.131Z" fill="#FFB6B6"/>
<path d="M257.756 158.421L258.051 158.456C260.793 158.779 263.415 159.766 265.69 161.331C267.964 162.896 269.823 164.992 271.105 167.437C274.455 173.814 285.05 217.006 282.456 222.933C280.037 228.461 280.137 227.102 281.895 230.809C283.653 234.517 285.973 230.349 284.208 236.464C282.443 242.578 280.127 241.836 282.164 244.061C284.201 246.286 286.148 245.732 284.477 249.715C282.807 253.699 283.176 254.996 282.897 256.479C282.618 257.961 283.446 268.248 283.446 268.248C283.446 268.248 272.141 267.962 266.671 270.924C266.671 270.924 269.273 260.362 267.421 258.785C265.568 257.209 263.437 257.115 264.829 254.614C266.22 252.112 269.649 251.837 265.851 250.815C262.052 249.793 262.159 228.016 262.159 228.016L257.756 158.421Z" fill="white"/>
<path d="M235.047 135.597C245.741 135.597 254.409 126.928 254.409 116.234C254.409 105.541 245.741 96.8723 235.047 96.8723C224.354 96.8723 215.685 105.541 215.685 116.234C215.685 126.928 224.354 135.597 235.047 135.597Z" fill="#FFB6B6"/>
<path d="M248.522 132.808C251.215 130.701 251.476 126.684 253.774 124.151C257.617 119.918 259.422 115.363 257.409 110.346C255.629 105.909 256.007 100.455 252.173 97.5989C254.056 96.9172 254.499 95.5017 252.838 95.4755C251.718 95.4579 247.541 97.5993 249.551 94.9317C251.56 92.2641 247.756 93.3171 248.008 92.2251C248.259 91.1332 249.873 90.5284 250.584 91.394C249.983 90.7804 249.25 90.3121 248.441 90.0248C247.632 89.7376 246.767 89.639 245.914 89.7367C245.061 89.8343 244.241 90.1255 243.517 90.5881C242.794 91.0506 242.185 91.6724 241.738 92.4059C239.474 89.012 237.07 86.6766 233.605 88.8304C230.201 90.9457 230.246 93.5606 226.586 92.9321C224.865 92.6367 224.703 95.8874 223.527 97.1782C222.984 97.8642 222.278 98.4033 221.473 98.7466C220.668 99.0899 219.79 99.2264 218.918 99.1437C217.203 98.8195 215.891 96.6818 216.853 95.2245L212.81 104.448L211.18 102.449C208.591 104.137 209.441 108.54 212.048 110.2C214.654 111.861 218.041 111.506 221.042 110.77C224.655 109.884 228.384 109.574 232.094 109.854C237.76 110.654 241.706 117.428 239.608 122.752C241.785 120.614 245.813 122.388 246.94 125.223C248.068 128.059 247.241 131.253 246.405 134.187" fill="#2F2E41"/>
<path d="M42 41H418.197V39H42V41ZM419.197 42V541.064H421.197V42H419.197ZM418.197 542.064H42V544.064H418.197V542.064ZM41 541.064V42H39V541.064H41ZM42 542.064C41.4477 542.064 41 541.617 41 541.064H39C39 542.721 40.3431 544.064 42 544.064V542.064ZM419.197 541.064C419.197 541.617 418.75 542.064 418.197 542.064V544.064C419.854 544.064 421.197 542.721 421.197 541.064H419.197ZM418.197 41C418.75 41 419.197 41.4477 419.197 42H421.197C421.197 40.3432 419.854 39 418.197 39V41ZM42 39C40.3431 39 39 40.3431 39 42H41C41 41.4477 41.4477 41 42 41V39Z" fill="black" fill-opacity="0.1"/>
</svg>
